<svg xmlns="http://www.w3.org/2000/svg" xmlns:xlink="http://www.w3.org/1999/xlink" viewBox="0 0 640 640"><defs/><defs><filter id="c" width="1.051" height="1.072" x="-.026" y="-.036" color-interpolation-filters="sRGB"><feGaussianBlur stdDeviation="4.218"/></filter></defs><defs><linearGradient id="a" x1="183.84" x2="455.25" y1="30.41" y2="610.01" gradientUnits="userSpaceOnUse"><stop offset="0%" stop-color="#f8d266"/><stop offset="100%" stop-color="#f17953"/></linearGradient><path id="b" d="M610.01 184.75c74.65 160.06 5.3 350.61-154.76 425.26-160.06 74.65-350.61 5.3-425.26-154.76-74.65-160.06-5.3-350.61 154.76-425.26 160.06-74.65 350.61-5.3 425.26 154.76z"/></defs><use fill="url(#a)" xlink:href="#b"/><path d="M151.28 480.6h84.36l56.24-112.48V199.4H123.16v168.72h84.36zm224.96 0h84.36l56.24-112.48V199.4H348.12v168.72h84.36z" filter="url(#c)" opacity=".2"/><path fill="#fff" d="M151.28 476.6h84.36l56.24-112.48V195.4H123.16v168.72h84.36zm224.96 0h84.36l56.24-112.48V195.4H348.12v168.72h84.36z"/></svg>