<?xml version="1.0" encoding="UTF-8" standalone="no"?>
<svg
   xmlns:dc="http://purl.org/dc/elements/1.1/"
   xmlns:cc="http://creativecommons.org/ns#"
   xmlns:rdf="http://www.w3.org/1999/02/22-rdf-syntax-ns#"
   xmlns:svg="http://www.w3.org/2000/svg"
   xmlns="http://www.w3.org/2000/svg"
   xmlns:xlink="http://www.w3.org/1999/xlink"
   xmlns:sodipodi="http://sodipodi.sourceforge.net/DTD/sodipodi-0.dtd"
   xmlns:inkscape="http://www.inkscape.org/namespaces/inkscape"
   width="640"
   height="640"
   version="1.1"
   id="svg16"
   sodipodi:docname="raised-vector.svg"
   inkscape:version="0.92.4 (5da689c313, 2019-01-14)"
   inkscape:export-filename="/home/victor/Documents/vector-gradient.svg.png"
   inkscape:export-xdpi="96"
   inkscape:export-ydpi="96"
   inkscape:label="circle">
  <metadata
     id="metadata20">
    <rdf:RDF>
      <cc:Work
         rdf:about="">
        <dc:format>image/svg+xml</dc:format>
        <dc:type
           rdf:resource="http://purl.org/dc/dcmitype/StillImage" />
        <dc:title />
      </cc:Work>
    </rdf:RDF>
  </metadata>
  <sodipodi:namedview
     pagecolor="#ffffff"
     bordercolor="#666666"
     borderopacity="1"
     objecttolerance="10"
     gridtolerance="10"
     guidetolerance="10"
     inkscape:pageopacity="0"
     inkscape:pageshadow="2"
     inkscape:window-width="1366"
     inkscape:window-height="713"
     id="namedview18"
     showgrid="false"
     inkscape:zoom="0.26074563"
     inkscape:cx="111.15493"
     inkscape:cy="552.47293"
     inkscape:window-x="0"
     inkscape:window-y="31"
     inkscape:window-maximized="1"
     inkscape:current-layer="svg16" />
  <defs
     id="defs2">
    <linearGradient
       id="linearGradient858"
       x1="183.84"
       x2="455.25"
       y1="30.41"
       y2="610.01"
       gradientUnits="userSpaceOnUse">
      <stop
         offset="0%"
         stop-color="#f8d266"
         id="stop4-7" />
      <stop
         offset="100%"
         stop-color="#f17953"
         id="stop6-9" />
    </linearGradient>
    <linearGradient
       inkscape:collect="always"
       xlink:href="#b"
       id="linearGradient861"
       gradientUnits="userSpaceOnUse"
       x1="183.84"
       y1="30.41"
       x2="455.25"
       y2="610.01" />
    <filter
       inkscape:collect="always"
       style="color-interpolation-filters:sRGB"
       id="filter863"
       x="-0.03"
       width="1.06"
       y="-0.03"
       height="1.06">
      <feGaussianBlur
         inkscape:collect="always"
         stdDeviation="8.0009021"
         id="feGaussianBlur865" />
    </filter>
    <filter
       inkscape:collect="always"
       style="color-interpolation-filters:sRGB"
       id="filter123"
       x="-0.035203874"
       width="1.0704077"
       y="-0.026136478"
       height="1.052273">
      <feGaussianBlur
         inkscape:collect="always"
         stdDeviation="5.6918441"
         id="feGaussianBlur125" />
    </filter>
  </defs>
  <defs
     id="defs10">
    <linearGradient
       id="b"
       x1="183.84"
       x2="455.25"
       y1="30.41"
       y2="610.01"
       gradientUnits="userSpaceOnUse">
      <stop
         offset="0%"
         stop-color="#f8d266"
         id="stop4" />
      <stop
         offset="100%"
         stop-color="#f17953"
         id="stop6" />
    </linearGradient>
    <path
       id="a"
       d="M610.01 184.75c74.65 160.06 5.3 350.61-154.76 425.26-160.06 74.65-350.61 5.3-425.26-154.76-74.65-160.06-5.3-350.61 154.76-425.26 160.06-74.65 350.61-5.3 425.26 154.76z" />
  </defs>
  <use
     style="fill:url(#linearGradient861);filter:url(#filter863)"
     xlink:href="#a"
     id="use12-7"
     x="0"
     y="0"
     width="100%"
     height="100%"
     inkscape:export-xdpi="72.444664"
     inkscape:export-ydpi="72.444664"
     inkscape:export-filename="/home/victor/Work/Extensions/custom-user-agent/0.png"
     inkscape:label="circle-shadow"
     transform="translate(1.788341e-5,1.788341e-5)" />
  <use
     fill="url(#b)"
     xlink:href="#a"
     id="use12"
     inkscape:label="circle" />
  <path
     id="path77"
     d="m 237.94268,183.57196 c 5.78073,-5.78075 15.36819,-5.78073 21.14885,-5e-5 5.78068,5.78066 5.78068,15.3681 -6e-5,21.14885 -5.78065,5.78063 -15.36809,5.78063 -21.14876,-5e-5 -5.78068,-5.78066 -5.78069,-15.36811 -3e-5,-21.14875 m -21.14881,-21.1488 c -17.483,17.48301 -17.48299,45.96336 2e-5,63.44637 17.48301,17.48302 45.96337,17.48303 63.44638,3e-5 17.48301,-17.48301 17.48309,-45.96346 7e-5,-63.44649 -17.483,-17.483 -45.96347,-17.48291 -63.44647,9e-5 z m 95.16964,-66.971237 c 3.94783,-3.94783 10.1514,-3.947791 14.09919,0 3.94778,3.947771 3.94783,10.151367 0,14.099227 -3.94774,3.94773 -10.15143,3.94777 -14.09921,0 -3.94779,-3.9478 -3.94774,-10.151485 2e-5,-14.099227 M 290.81469,74.303119 c -15.50912,15.509145 -15.50913,40.887721 -3e-5,56.396841 15.50913,15.50912 40.8877,15.50912 56.39685,-2e-5 15.50913,-15.50913 15.50913,-40.887725 1e-5,-56.396841 -15.50911,-15.509116 -40.88769,-15.509116 -56.39683,2e-5 z m -49.34722,7.049627 c 11.70233,11.702339 11.70233,30.595274 8e-5,42.297534 -11.70235,11.70235 -30.59528,11.70235 -42.29761,2e-5 -11.70235,-11.70233 -11.70235,-30.595284 0,-42.297632 11.70227,-11.70227 30.59519,-11.702251 42.29753,7.8e-5 z M 146.01585,438.76751 c -0.56396,16.35509 5.7807,32.28718 17.48303,43.98951 l 85.01821,85.01821 c 23.40467,23.40467 61.19052,23.40467 84.59514,6e-5 l 192.8772,-192.8772 c 9.16443,-9.16444 10.99733,-24.25058 2.81979,-34.402 -9.44641,-11.70241 -26.64747,-12.26634 -36.9399,-1.9739 l -74.16178,74.16178 c -3.94774,3.94775 -10.15144,3.94778 -14.09921,2e-5 v 0 c -3.94778,-3.94779 -3.94773,-10.15149 0,-14.09922 L 504.84065,297.35246 c 9.16443,-9.16443 10.99735,-24.25059 2.81979,-34.40201 -9.44651,-11.70231 -26.64747,-12.26634 -36.93992,-1.9739 L 368.36031,363.33676 c -3.94773,3.94773 -10.15141,3.94777 -14.0992,0 v 0 c -3.94777,-3.94778 -3.94773,-10.15147 1e-5,-14.0992 L 469.59264,233.90602 c 9.16443,-9.16444 10.99734,-24.25059 2.8198,-34.40199 -9.44651,-11.70231 -26.64747,-12.26635 -36.9399,-1.9739 L 319.01311,313.98954 c -3.94774,3.94775 -10.15143,3.94778 -14.0992,0 v 0 c -3.94779,-3.94777 -3.94773,-10.15146 0,-14.09919 l 87.1331,-87.13311 c 9.16444,-9.16442 10.99734,-24.25059 2.81979,-34.402 -9.44641,-11.7024 -26.64747,-12.26634 -36.9399,-1.97389 L 218.34479,315.96346 202.55362,258.15678 c -0.98691,-3.52483 -2.67876,-6.6267 -5.49859,-9.44655 -3.6658,-3.66579 -8.31857,-5.78063 -13.53526,-6.20362 l -12.26637,-0.42294 c -10.85634,-0.141 -20.02084,8.45951 -20.30283,19.45689 z"
     inkscape:connector-curvature="0"
     style="display:inline;opacity:0.2;fill:#000000;stroke-width:19.93928337;filter:url(#filter123)"
     inkscape:label="icon-shadow" />
  <path
     id="path77-6"
     d="m 237.94268,179.57196 c 5.78073,-5.78075 15.36818,-5.78073 21.14884,-5e-5 5.78068,5.78066 5.78068,15.3681 -6e-5,21.14885 -5.78065,5.78063 -15.36808,5.78063 -21.14875,-5e-5 -5.78068,-5.78066 -5.78069,-15.36811 -3e-5,-21.14875 m -21.14881,-21.14881 c -17.483,17.48302 -17.48299,45.96337 2e-5,63.44638 17.48301,17.48302 45.96336,17.48303 63.44637,3e-5 17.48301,-17.48301 17.48309,-45.96346 7e-5,-63.4465 -17.483,-17.483 -45.96346,-17.48291 -63.44646,9e-5 z M 311.9635,91.451914 c 3.94783,-3.94783 10.1514,-3.94779 14.09919,0 3.94778,3.94778 3.94783,10.151366 0,14.099226 -3.94774,3.94773 -10.15143,3.94777 -14.09921,0 -3.94779,-3.9478 -3.94774,-10.151476 2e-5,-14.099226 m -21.14882,-21.1488 c -15.50912,15.50915 -15.50913,40.887716 -3e-5,56.396836 15.50913,15.50912 40.8877,15.50912 56.39685,-2e-5 15.50913,-15.50913 15.50913,-40.887716 10e-6,-56.396836 -15.50911,-15.50912 -40.88769,-15.50912 -56.39683,2e-5 z m -49.34721,7.04963 c 11.70232,11.70234 11.70232,30.595266 8e-5,42.297526 -11.70235,11.70235 -30.59528,11.70235 -42.29761,2e-5 -11.70235,-11.70233 -11.70235,-30.595276 0,-42.297626 11.70227,-11.70227 30.59519,-11.70225 42.29753,8e-5 z M 146.01585,434.76751 c -0.56396,16.35509 5.7807,32.28718 17.48303,43.98951 l 85.0182,85.01821 c 23.40467,23.40467 61.19052,23.40467 84.59514,6e-5 l 192.8772,-192.8772 c 9.16443,-9.16444 10.99733,-24.25058 2.81979,-34.402 -9.44641,-11.70241 -26.64747,-12.26634 -36.9399,-1.9739 l -74.16178,74.16178 c -3.94774,3.94775 -10.15144,3.94778 -14.09921,2e-5 v 0 c -3.94778,-3.94779 -3.94773,-10.15149 0,-14.09922 L 504.84064,293.35246 c 9.16443,-9.16443 10.99735,-24.25059 2.81979,-34.40201 -9.44651,-11.70231 -26.64747,-12.26634 -36.93992,-1.9739 L 368.3603,359.33676 c -3.94773,3.94773 -10.15141,3.94777 -14.0992,0 v 0 c -3.94777,-3.94778 -3.94773,-10.15147 10e-6,-14.0992 L 469.59263,229.90602 c 9.16443,-9.16444 10.99734,-24.25059 2.8198,-34.40199 -9.44651,-11.70231 -26.64747,-12.26635 -36.9399,-1.9739 L 319.0131,309.98954 c -3.94774,3.94775 -10.15143,3.94778 -14.0992,0 v 0 c -3.94779,-3.94777 -3.94773,-10.15146 0,-14.09919 l 87.1331,-87.13311 c 9.16444,-9.16442 10.99734,-24.25059 2.81979,-34.402 -9.44641,-11.7024 -26.64747,-12.26634 -36.9399,-1.97389 l -139.5821,139.58211 -15.79117,-57.80668 c -0.98691,-3.52483 -2.67876,-6.6267 -5.49859,-9.44655 -3.6658,-3.66579 -8.31857,-5.78063 -13.53526,-6.20362 l -12.26637,-0.42294 c -10.85634,-0.141 -20.02084,8.45951 -20.30283,19.45689 z"
     inkscape:connector-curvature="0"
     style="opacity:1;fill:#ffffff;stroke-width:19.93928337"
     inkscape:label="icon" />
</svg>
