<svg xmlns="http://www.w3.org/2000/svg" viewBox="0 0 640 640"><path fill="#e94a35" d="M609.98 184.77c74.64 160.04 5.3 350.57-154.75 425.2-160.04 74.65-350.57 5.3-425.2-154.74-74.65-160.04-5.3-350.57 154.74-425.2 160.04-74.65 350.57-5.3 425.2 154.74z"/><path fill="#d24332" d="M222.56 121.61a25.98 25.98 0 00-18.19 44.18l20.79 20.78h-44.18c-87.04 0-146.8 72.76-146.8 155.91 0 83.15 59.76 155.9 146.8 155.9 54.57 0 94.85-38.97 120.83-75.35 25.99-33.78 38.98-64.96 40.28-67.56a25.98 25.98 0 001.3-2.6s12.99-29.88 36.37-59.76c22.1-29.88 51.97-54.57 79.26-54.57 59.76 0 94.84 42.88 94.84 103.94 0 59.76-41.58 103.94-90.95 103.94-29.88 0-57.16-13-72.75-29.88a25.98 25.98 0 10-38.98 33.78c25.99 31.18 67.56 48.07 111.73 48.07 80.56 0 142.92-71.46 142.92-155.91 0-83.15-59.77-155.9-146.81-155.9-54.57 0-94.85 38.97-120.83 75.35-25.99 33.78-38.98 64.96-40.28 67.56a25.98 25.98 0 00-1.3 2.6s-12.99 29.88-36.37 59.76c-22.1 29.88-51.97 54.57-79.26 54.57-59.76 0-94.84-42.88-94.84-103.94 0-61.06 35.08-103.94 94.84-103.94h44.18l-22.09 20.8a25.98 25.98 0 1036.38 36.37l64.96-64.96a25.98 25.98 0 000-36.38l-64.96-64.96a25.98 25.98 0 00-18.19-7.8z"/><path fill="#fff" d="M229.78 135.57a24.06 24.06 0 00-16.85 40.9l19.25 19.25h-40.9c-80.6 0-135.94 67.36-135.94 144.35 0 77 55.34 144.36 135.94 144.36 50.53 0 87.82-36.09 111.88-69.77 24.06-31.28 36.09-60.15 37.3-62.56a24.06 24.06 0 001.2-2.4s12.02-27.67 33.68-55.34c20.45-27.67 48.12-50.52 73.38-50.52 55.34 0 87.82 39.7 87.82 96.23 0 55.34-38.5 96.24-84.21 96.24-27.67 0-52.93-12.03-67.37-27.67a24.06 24.06 0 10-36.09 31.28c24.06 28.87 62.56 44.51 103.46 44.51 74.58 0 132.33-66.16 132.33-144.36 0-76.99-55.34-144.35-135.94-144.35-50.53 0-87.82 36.09-111.88 69.77-24.06 31.28-36.09 60.15-37.3 62.55a24.06 24.06 0 00-1.2 2.41s-12.02 27.67-33.68 55.34c-20.45 27.67-48.12 50.52-73.38 50.52-55.34 0-87.82-39.7-87.82-96.24 0-56.54 32.48-96.23 87.82-96.23h40.9l-20.45 19.24a24.06 24.06 0 1033.69 33.69l60.14-60.15a24.06 24.06 0 000-33.69l-60.14-60.14a24.06 24.06 0 00-16.85-7.22z"/></svg>