<svg xmlns="http://www.w3.org/2000/svg" xmlns:xlink="http://www.w3.org/1999/xlink" viewBox="0 0 640 640"><defs/><defs><linearGradient id="c"><stop offset="0" stop-color="#fff"/><stop offset="1" stop-color="#fff" stop-opacity=".641"/></linearGradient><linearGradient id="b"><stop offset="0" stop-color="#ffdc46"/><stop offset="1" stop-color="#ffdc46" stop-opacity=".66"/></linearGradient><linearGradient id="d" x1="183.84" x2="455.25" y1="30.41" y2="610.01" gradientUnits="userSpaceOnUse" xlink:href="#a"/><linearGradient id="f" x1="2.156" x2="20.101" y1="2.183" y2="21.92" gradientUnits="userSpaceOnUse" xlink:href="#b"/><linearGradient id="g" x1="1.244" x2="8.756" y1="14.806" y2="19.437" gradientUnits="userSpaceOnUse" xlink:href="#c"/></defs><defs><linearGradient id="a" x1="183.84" x2="455.25" y1="30.41" y2="610.01" gradientUnits="userSpaceOnUse"><stop offset="0%" stop-color="#2f2f2f"/><stop offset="100%" stop-color="#212121"/></linearGradient><path id="e" d="M610.01 184.75c74.65 160.06 5.3 350.61-154.76 425.26-160.06 74.65-350.61 5.3-425.26-154.76-74.65-160.06-5.3-350.61 154.76-425.26 160.06-74.65 350.61-5.3 425.26 154.76z"/></defs><use fill="url(#d)" xlink:href="#e"/><path fill="url(#f)" d="M11.1 12.08c-2.33-4.51-.5-8.48.53-10.07C6.27 2.2 1.98 6.59 1.98 12c0 .14.02.28.02.42.62-.27 1.29-.42 2-.42 1.66 0 3.18.83 4.1 2.15A4.01 4.01 0 0111 18c0 1.52-.87 2.83-2.12 3.51.98.32 2.03.5 3.11.5 3.5 0 6.58-1.8 8.37-4.52-2.36.23-6.98-.97-9.26-5.41z" transform="matrix(22.25315 0 0 22.25315 60.962 48.962)"/><path fill="url(#g)" d="M7 16h-.18C6.4 14.84 5.3 14 4 14c-1.66 0-3 1.34-3 3s1.34 3 3 3h3c1.1 0 2-.9 2-2s-.9-2-2-2z" transform="matrix(22.25315 0 0 22.25315 60.962 48.962)"/></svg>