<svg xmlns="http://www.w3.org/2000/svg" xmlns:xlink="http://www.w3.org/1999/xlink" viewBox="0 0 640 640"><defs/><defs><linearGradient id="a" x1="183.84" x2="455.25" y1="30.41" y2="610.01" gradientUnits="userSpaceOnUse"><stop offset="0%" stop-color="#06beb6"/><stop offset="100%" stop-color="#021aee"/></linearGradient><linearGradient id="b" x1="183.84" x2="455.25" y1="30.41" y2="610.01" gradientUnits="userSpaceOnUse" xlink:href="#a"/></defs><defs><path id="c" d="M610.01 184.75c74.65 160.06 5.3 350.61-154.76 425.26-160.06 74.65-350.61 5.3-425.26-154.76-74.65-160.06-5.3-350.61 154.76-425.26 160.06-74.65 350.61-5.3 425.26 154.76z"/></defs><use fill="url(#b)" xlink:href="#c"/><path fill="#fff" d="M438.075 299.829v-72.853c0-11.448-9.367-20.815-20.815-20.815H167.48c-11.448 0-20.815 9.367-20.815 20.815v208.15c0 11.448 9.367 20.815 20.815 20.815h249.78c11.448 0 20.815-9.367 20.815-20.815v-72.852l47.666 47.666c13.114 13.113 35.594 3.747 35.594-14.779V266.733c0-18.525-22.48-27.892-35.594-14.779z" opacity=".9"/></svg>