<svg xmlns="http://www.w3.org/2000/svg" xmlns:xlink="http://www.w3.org/1999/xlink" viewBox="0 0 640 640"><defs/><defs><linearGradient id="c" x1="183.84" x2="455.25" y1="30.41" y2="610.01" gradientUnits="userSpaceOnUse" xlink:href="#a"/><filter id="d" width="1.06" height="1.06" x="-.03" y="-.03" color-interpolation-filters="sRGB"><feGaussianBlur stdDeviation="8.001"/></filter></defs><defs><linearGradient id="a" x1="183.84" x2="455.25" y1="30.41" y2="610.01" gradientUnits="userSpaceOnUse"><stop offset="0%" stop-color="#ED213A"/><stop offset="100%" stop-color="#93291E"/></linearGradient><path id="b" d="M610.01 184.75c74.65 160.06 5.3 350.61-154.76 425.26-160.06 74.65-350.61 5.3-425.26-154.76-74.65-160.06-5.3-350.61 154.76-425.26 160.06-74.65 350.61-5.3 425.26 154.76z"/></defs><use width="100%" height="100%" fill="url(#c)" filter="url(#d)" xlink:href="#b"/><use fill="url(#a)" xlink:href="#b"/><path fill="#fff" d="M188.523 155.016v337.968c0 25.772 28.381 41.43 50.238 27.403l265.547-168.984c20.226-12.723 20.226-42.083 0-55.132L238.76 127.613c-21.857-14.028-50.238 1.631-50.238 27.403z" opacity=".9"/></svg>