<svg xmlns="http://www.w3.org/2000/svg" xmlns:xlink="http://www.w3.org/1999/xlink" viewBox="0 0 640 640"><defs/><defs><filter id="c" width="1.07" height="1.052" x="-.035" y="-.026" color-interpolation-filters="sRGB"><feGaussianBlur stdDeviation="5.692"/></filter></defs><defs><linearGradient id="a" x1="183.84" x2="455.25" y1="30.41" y2="610.01" gradientUnits="userSpaceOnUse"><stop offset="0%" stop-color="#f8d266"/><stop offset="100%" stop-color="#f17953"/></linearGradient><path id="b" d="M610.01 184.75c74.65 160.06 5.3 350.61-154.76 425.26-160.06 74.65-350.61 5.3-425.26-154.76-74.65-160.06-5.3-350.61 154.76-425.26 160.06-74.65 350.61-5.3 425.26 154.76z"/></defs><use fill="url(#a)" xlink:href="#b"/><path d="M237.943 183.572c5.78-5.78 15.368-5.78 21.149 0 5.78 5.78 5.78 15.368 0 21.149-5.781 5.78-15.369 5.78-21.15 0-5.78-5.78-5.78-15.368 0-21.149m-21.148-21.149c-17.483 17.483-17.483 45.964 0 63.447 17.483 17.483 45.963 17.483 63.446 0 17.483-17.483 17.483-45.964 0-63.447-17.483-17.483-45.963-17.483-63.446 0zm95.17-66.971c3.947-3.948 10.15-3.948 14.099 0 3.947 3.948 3.948 10.151 0 14.1-3.948 3.947-10.152 3.947-14.1 0-3.947-3.949-3.947-10.152 0-14.1m-21.148-21.149c-15.51 15.51-15.51 40.888 0 56.397 15.509 15.51 40.887 15.51 56.397 0 15.509-15.51 15.509-40.888 0-56.397-15.51-15.509-40.888-15.509-56.397 0zm-49.348 7.05c11.703 11.702 11.703 30.595 0 42.297-11.702 11.703-30.595 11.703-42.297 0-11.702-11.702-11.702-30.595 0-42.297 11.702-11.703 30.595-11.703 42.297 0zm-95.451 357.415c-.564 16.355 5.78 32.287 17.483 43.989l85.018 85.018c23.405 23.405 61.19 23.405 84.595 0L525.99 374.898c9.165-9.164 10.998-24.25 2.82-34.402-9.446-11.702-26.647-12.266-36.94-1.974l-74.161 74.162c-3.948 3.948-10.152 3.948-14.1 0-3.947-3.948-3.947-10.152 0-14.1l101.233-101.232c9.164-9.164 10.997-24.25 2.82-34.402-9.447-11.702-26.648-12.266-36.94-1.973l-102.36 102.36c-3.948 3.947-10.152 3.948-14.1 0-3.948-3.948-3.948-10.152 0-14.1l115.332-115.331c9.164-9.164 10.997-24.25 2.82-34.402-9.447-11.702-26.648-12.266-36.94-1.974l-116.46 116.46c-3.948 3.947-10.151 3.947-14.1 0-3.947-3.948-3.947-10.152 0-14.1l87.134-87.133c9.164-9.164 10.997-24.25 2.82-34.402-9.447-11.702-26.648-12.266-36.94-1.974L218.345 315.963l-15.791-57.806c-.987-3.525-2.68-6.627-5.499-9.447-3.666-3.666-8.319-5.78-13.535-6.203l-12.267-.423c-10.856-.141-20.02 8.46-20.302 19.457z" filter="url(#c)" opacity=".2"/><path fill="#fff" d="M237.943 179.572c5.78-5.78 15.368-5.78 21.149 0 5.78 5.78 5.78 15.368 0 21.149-5.781 5.78-15.369 5.78-21.15 0-5.78-5.78-5.78-15.368 0-21.149m-21.148-21.149c-17.483 17.483-17.483 45.964 0 63.447 17.483 17.483 45.963 17.483 63.446 0 17.483-17.483 17.483-45.964 0-63.447-17.483-17.483-45.963-17.483-63.446 0zm95.17-66.971c3.947-3.948 10.15-3.948 14.099 0 3.947 3.948 3.948 10.151 0 14.1-3.948 3.947-10.152 3.947-14.1 0-3.947-3.949-3.947-10.152 0-14.1m-21.148-21.149c-15.51 15.51-15.51 40.888 0 56.397 15.509 15.51 40.887 15.51 56.397 0 15.509-15.51 15.509-40.888 0-56.397-15.51-15.509-40.888-15.509-56.397 0zm-49.348 7.05c11.703 11.702 11.703 30.595 0 42.297-11.702 11.703-30.595 11.703-42.297 0-11.702-11.702-11.702-30.595 0-42.297 11.702-11.703 30.595-11.703 42.297 0zm-95.451 357.415c-.564 16.355 5.78 32.287 17.483 43.989l85.018 85.018c23.405 23.405 61.19 23.405 84.595 0L525.99 370.898c9.165-9.164 10.998-24.25 2.82-34.402-9.446-11.702-26.647-12.266-36.94-1.974l-74.161 74.162c-3.948 3.948-10.152 3.948-14.1 0-3.947-3.948-3.947-10.152 0-14.1l101.233-101.232c9.164-9.164 10.997-24.25 2.82-34.402-9.447-11.702-26.648-12.266-36.94-1.973l-102.36 102.36c-3.948 3.947-10.152 3.948-14.1 0-3.948-3.948-3.948-10.152 0-14.1l115.332-115.331c9.164-9.164 10.997-24.25 2.82-34.402-9.447-11.702-26.648-12.266-36.94-1.974l-116.46 116.46c-3.948 3.947-10.151 3.947-14.1 0-3.947-3.948-3.947-10.152 0-14.1l87.134-87.133c9.164-9.164 10.997-24.25 2.82-34.402-9.447-11.702-26.648-12.266-36.94-1.974L218.345 311.963l-15.791-57.806c-.987-3.525-2.68-6.627-5.499-9.447-3.666-3.666-8.319-5.78-13.535-6.203l-12.267-.423c-10.856-.141-20.02 8.46-20.302 19.457z"/></svg>