<svg xmlns="http://www.w3.org/2000/svg" xmlns:xlink="http://www.w3.org/1999/xlink" viewBox="-10 -10 650 650"><defs/><defs><linearGradient id="b"><stop offset="0" stop-color="#f8d266"/><stop offset="1" stop-color="#f17953"/></linearGradient><linearGradient id="a"><stop offset="0" stop-color="#f17953"/><stop offset="1" stop-color="#f8d266"/></linearGradient><linearGradient id="f" x1="-22.034" x2="243.294" y1="317.065" y2="372.15" gradientUnits="userSpaceOnUse" xlink:href="#a"/><linearGradient id="d" x1="358.508" x2="656.525" y1="405.381" y2="523.814" gradientUnits="userSpaceOnUse" xlink:href="#b"/><path id="c" d="M536.44 95.33c12.95-12.96 33.96-12.96 46.92 0 14.08 14.08 32.84 32.85 46.92 46.92 12.96 12.96 12.96 33.97 0 46.93L274.79 544.67c-12.96 12.96-33.97 12.96-46.93 0-14.07-14.08-32.84-32.85-46.92-46.92-12.96-12.96-12.96-33.97 0-46.93 75.79-75.79 279.7-279.7 355.5-355.49z"/><path id="e" d="M321.71 450.82c12.96 12.96 12.96 33.97 0 46.93-14.08 14.07-32.85 32.84-46.92 46.92-12.96 12.96-33.97 12.96-46.93 0C179.54 496.35 58.04 374.85 9.72 326.52c-12.96-12.95-12.96-33.96 0-46.92 14.08-14.08 32.84-32.85 46.92-46.92 12.96-12.96 33.97-12.96 46.92 0C151.89 281 273.39 402.5 321.71 450.82z"/></defs><use width="100%" height="100%" fill="url(#d)" transform="translate(-5 -5)" xlink:href="#c"/><use width="100%" height="100%" fill="url(#f)" transform="translate(-5 -5)" xlink:href="#e"/></svg>