<?xml version="1.0" encoding="UTF-8" standalone="no"?>
<svg
   xmlns:dc="http://purl.org/dc/elements/1.1/"
   xmlns:cc="http://creativecommons.org/ns#"
   xmlns:rdf="http://www.w3.org/1999/02/22-rdf-syntax-ns#"
   xmlns:svg="http://www.w3.org/2000/svg"
   xmlns="http://www.w3.org/2000/svg"
   xmlns:xlink="http://www.w3.org/1999/xlink"
   xmlns:sodipodi="http://sodipodi.sourceforge.net/DTD/sodipodi-0.dtd"
   xmlns:inkscape="http://www.inkscape.org/namespaces/inkscape"
   width="640"
   height="640"
   version="1.1"
   id="svg16"
   sodipodi:docname="raised-vector.svg"
   inkscape:version="0.92.4 (5da689c313, 2019-01-14)"
   inkscape:export-filename="/home/victor/Documents/vector-gradient.svg.png"
   inkscape:export-xdpi="96"
   inkscape:export-ydpi="96"
   inkscape:label="circle">
  <metadata
     id="metadata20">
    <rdf:RDF>
      <cc:Work
         rdf:about="">
        <dc:format>image/svg+xml</dc:format>
        <dc:type
           rdf:resource="http://purl.org/dc/dcmitype/StillImage" />
        <dc:title />
      </cc:Work>
    </rdf:RDF>
  </metadata>
  <sodipodi:namedview
     pagecolor="#ffffff"
     bordercolor="#666666"
     borderopacity="1"
     objecttolerance="10"
     gridtolerance="10"
     guidetolerance="10"
     inkscape:pageopacity="0"
     inkscape:pageshadow="2"
     inkscape:window-width="1366"
     inkscape:window-height="713"
     id="namedview18"
     showgrid="false"
     inkscape:zoom="0.26074563"
     inkscape:cx="-48.322438"
     inkscape:cy="113.57517"
     inkscape:window-x="0"
     inkscape:window-y="31"
     inkscape:window-maximized="1"
     inkscape:current-layer="g267" />
  <defs
     id="defs2">
    <linearGradient
       inkscape:collect="always"
       id="linearGradient4554">
      <stop
         style="stop-color:#ffffff;stop-opacity:1"
         offset="0"
         id="stop4550" />
      <stop
         style="stop-color:#ffffff;stop-opacity:0.64077669"
         offset="1"
         id="stop4552" />
    </linearGradient>
    <linearGradient
       inkscape:collect="always"
       id="linearGradient843">
      <stop
         style="stop-color:#ffdc46;stop-opacity:1"
         offset="0"
         id="stop839" />
      <stop
         style="stop-color:#ffdc46;stop-opacity:0.66019416"
         offset="1"
         id="stop841" />
    </linearGradient>
    <linearGradient
       inkscape:collect="always"
       xlink:href="#circle"
       id="linearGradient861"
       gradientUnits="userSpaceOnUse"
       x1="183.84"
       y1="30.41"
       x2="455.25"
       y2="610.01001" />
    <filter
       inkscape:collect="always"
       style="color-interpolation-filters:sRGB"
       id="filter863"
       x="-0.03"
       width="1.06"
       y="-0.03"
       height="1.06">
      <feGaussianBlur
         inkscape:collect="always"
         stdDeviation="8.0009021"
         id="feGaussianBlur865" />
    </filter>
    <linearGradient
       inkscape:collect="always"
       xlink:href="#circle"
       id="linearGradient1074"
       gradientUnits="userSpaceOnUse"
       x1="183.84"
       y1="30.41"
       x2="455.25"
       y2="610.01001" />
    <linearGradient
       inkscape:collect="always"
       xlink:href="#linearGradient843"
       id="linearGradient845"
       x1="2.1560459"
       y1="2.182796"
       x2="20.101488"
       y2="21.919672"
       gradientUnits="userSpaceOnUse" />
    <linearGradient
       inkscape:collect="always"
       xlink:href="#linearGradient4554"
       id="linearGradient4556"
       x1="1.2437285"
       y1="14.806443"
       x2="8.7562714"
       y2="19.437286"
       gradientUnits="userSpaceOnUse" />
  </defs>
  <defs
     id="defs10">
    <linearGradient
       id="circle"
       x1="183.84"
       x2="455.25"
       y1="30.41"
       y2="610.01"
       gradientUnits="userSpaceOnUse">
      <stop
         offset="0%"
         stop-color="#2f2f2f"
         id="stop4" />
      <stop
         offset="100%"
         stop-color="#212121"
         id="stop6" />
    </linearGradient>
    <path
       id="a"
       d="M610.01 184.75c74.65 160.06 5.3 350.61-154.76 425.26-160.06 74.65-350.61 5.3-425.26-154.76-74.65-160.06-5.3-350.61 154.76-425.26 160.06-74.65 350.61-5.3 425.26 154.76z" />
  </defs>
  <use
     style="fill:url(#linearGradient861);filter:url(#filter863);fill-opacity:1.0"
     xlink:href="#a"
     id="use12-7"
     x="0"
     y="0"
     width="100%"
     height="100%"
     inkscape:export-xdpi="72.444664"
     inkscape:export-ydpi="72.444664"
     inkscape:export-filename="/home/victor/Work/Extensions/custom-user-agent/0.png"
     inkscape:label="circle-shadow"
     transform="translate(1.788341e-5,1.788341e-5)" />
  <use
     fill="url(#b)"
     xlink:href="#a"
     id="use12"
     inkscape:label="circle"
     style="fill-opacity:1.0;fill:url(#linearGradient1074)" />
  <g
     id="g267"
     transform="matrix(22.253153,0,0,22.253153,60.962164,48.962164)"
     inkscape:label="icon (group)">
    <path
       id="path254"
       d="M 11.1,12.08 C 8.77,7.57 10.6,3.6 11.63,2.01 6.27,2.2 1.98,6.59 1.98,12 1.98,12.14 2,12.28 2,12.42 2.62,12.15 3.29,12 4,12 c 1.66,0 3.18,0.83 4.1,2.15 A 4.01,4.01 0 0 1 11,18 c 0,1.52 -0.87,2.83 -2.12,3.51 0.98,0.32 2.03,0.5 3.11,0.5 3.5,0 6.58,-1.8 8.37,-4.52 C 18,17.72 13.38,16.52 11.1,12.08 Z"
       inkscape:connector-curvature="0"
       style="fill:url(#linearGradient845);fill-opacity:1"
       inkscape:label="moon" />
    <path
       id="path256"
       d="M 7,16 H 6.82 C 6.4,14.84 5.3,14 4,14 c -1.66,0 -3,1.34 -3,3 0,1.66 1.34,3 3,3 H 7 C 8.1,20 9,19.1 9,18 9,16.9 8.1,16 7,16 Z"
       inkscape:connector-curvature="0"
       style="fill:url(#linearGradient4556);fill-opacity:1"
       inkscape:label="cloud" />
  </g>
</svg>
