<?xml version="1.0" encoding="UTF-8" standalone="no"?>
<svg
   xmlns:dc="http://purl.org/dc/elements/1.1/"
   xmlns:cc="http://creativecommons.org/ns#"
   xmlns:rdf="http://www.w3.org/1999/02/22-rdf-syntax-ns#"
   xmlns:svg="http://www.w3.org/2000/svg"
   xmlns="http://www.w3.org/2000/svg"
   xmlns:xlink="http://www.w3.org/1999/xlink"
   xmlns:sodipodi="http://sodipodi.sourceforge.net/DTD/sodipodi-0.dtd"
   xmlns:inkscape="http://www.inkscape.org/namespaces/inkscape"
   width="640"
   height="640"
   version="1.1"
   id="svg16"
   sodipodi:docname="raised-vector.svg"
   inkscape:version="0.92.4 (5da689c313, 2019-01-14)"
   inkscape:export-filename="/home/victor/Documents/vector-gradient.svg.png"
   inkscape:export-xdpi="96"
   inkscape:export-ydpi="96"
   inkscape:label="circle">
  <metadata
     id="metadata20">
    <rdf:RDF>
      <cc:Work
         rdf:about="">
        <dc:format>image/svg+xml</dc:format>
        <dc:type
           rdf:resource="http://purl.org/dc/dcmitype/StillImage" />
        <dc:title />
      </cc:Work>
    </rdf:RDF>
  </metadata>
  <sodipodi:namedview
     pagecolor="#ffffff"
     bordercolor="#666666"
     borderopacity="1"
     objecttolerance="10"
     gridtolerance="10"
     guidetolerance="10"
     inkscape:pageopacity="0"
     inkscape:pageshadow="2"
     inkscape:window-width="1366"
     inkscape:window-height="713"
     id="namedview18"
     showgrid="false"
     inkscape:zoom="0.36875"
     inkscape:cx="34.875153"
     inkscape:cy="247.78662"
     inkscape:window-x="0"
     inkscape:window-y="31"
     inkscape:window-maximized="1"
     inkscape:current-layer="svg16" />
  <defs
     id="defs2">
    <linearGradient
       id="linearGradient858"
       x1="183.84"
       x2="455.25"
       y1="30.41"
       y2="610.01"
       gradientUnits="userSpaceOnUse">
      <stop
         offset="0%"
         stop-color="#f8d266"
         id="stop4-7" />
      <stop
         offset="100%"
         stop-color="#f17953"
         id="stop6-9" />
    </linearGradient>
    <linearGradient
       inkscape:collect="always"
       xlink:href="#b"
       id="linearGradient861"
       gradientUnits="userSpaceOnUse"
       x1="183.84"
       y1="30.41"
       x2="455.25"
       y2="610.01" />
    <filter
       inkscape:collect="always"
       style="color-interpolation-filters:sRGB"
       id="filter863"
       x="-0.03"
       width="1.06"
       y="-0.03"
       height="1.06">
      <feGaussianBlur
         inkscape:collect="always"
         stdDeviation="8.0009021"
         id="feGaussianBlur865" />
    </filter>
    <filter
       inkscape:collect="always"
       style="color-interpolation-filters:sRGB"
       id="filter842"
       x="-0.028577338"
       width="1.0571547"
       y="-0.031571732"
       height="1.0631435">
      <feGaussianBlur
         inkscape:collect="always"
         stdDeviation="5.6762359"
         id="feGaussianBlur844" />
    </filter>
  </defs>
  <defs
     id="defs10">
    <linearGradient
       id="b"
       x1="183.84"
       x2="455.25"
       y1="30.41"
       y2="610.01"
       gradientUnits="userSpaceOnUse">
      <stop
         offset="0%"
         stop-color="#f8d266"
         id="stop4" />
      <stop
         offset="100%"
         stop-color="#f17953"
         id="stop6" />
    </linearGradient>
    <path
       id="a"
       d="M610.01 184.75c74.65 160.06 5.3 350.61-154.76 425.26-160.06 74.65-350.61 5.3-425.26-154.76-74.65-160.06-5.3-350.61 154.76-425.26 160.06-74.65 350.61-5.3 425.26 154.76z" />
  </defs>
  <use
     style="fill:url(#linearGradient861);filter:url(#filter863)"
     xlink:href="#a"
     id="use12-7"
     x="0"
     y="0"
     width="100%"
     height="100%"
     inkscape:export-xdpi="2.2638958"
     inkscape:export-ydpi="2.2638958"
     inkscape:export-filename="/home/victor/Work/Extensions/custom-user-agent/0.png"
     inkscape:label="circle-shadow"
     transform="translate(1.788341e-5,1.788341e-5)" />
  <use
     fill="url(#b)"
     xlink:href="#a"
     id="use12"
     inkscape:label="circle" />
  <path
     id="path883-3"
     d="M 268.12668,493.83831 V 364.29989 h 103.63074 v 129.53842 c 0,14.24924 11.65846,25.90769 25.90769,25.90769 h 77.72306 c 14.24923,0 25.90769,-11.65845 25.90769,-25.90769 v -181.3538 h 44.04307 c 11.91753,0 17.61722,-14.76738 8.54953,-22.53969 L 337.3002,94.85993 c -9.84492,-8.808606 -24.87138,-8.808606 -34.7163,0 L 85.99566,289.94482 c -8.80862,7.77231 -3.368,22.53969 8.54953,22.53969 h 44.04307 v 181.3538 c 0,14.24924 11.65846,25.90769 25.90769,25.90769 h 77.72304 c 14.24923,0 25.90769,-11.65845 25.90769,-25.90769 z"
     inkscape:connector-curvature="0"
     inkscape:label="icon-shadow"
     style="opacity:0.2;fill:#000011;fill-opacity:1;stroke-width:25.90768814;filter:url(#filter842)"
     transform="matrix(0.95695036,0,0,0.95695036,13.776263,17.087335)" />
  <path
     id="path883"
     d="M 270.36019,489.66608 V 365.70424 h 99.16947 v 123.96184 c 0,13.63582 11.15657,24.79238 24.79237,24.79238 h 74.37711 c 13.63581,0 24.79238,-11.15656 24.79238,-24.79238 V 316.1195 h 42.14703 c 11.40448,0 16.8588,-14.13165 8.18147,-21.56937 L 336.55581,107.86359 c -9.4211,-8.4294 -23.80067,-8.4294 -33.22177,0 L 96.069833,294.55013 c -8.429407,7.43772 -3.223009,21.56937 8.181477,21.56937 h 42.14703 v 173.54658 c 0,13.63582 11.15657,24.79238 24.79237,24.79238 h 74.3771 c 13.63581,0 24.79238,-11.15656 24.79238,-24.79238 z"
     inkscape:connector-curvature="0"
     inkscape:label="icon"
     style="fill:#fafafa;fill-opacity:1;stroke-width:24.79237175" />
</svg>
