<svg xmlns="http://www.w3.org/2000/svg" xmlns:xlink="http://www.w3.org/1999/xlink" viewBox="0 0 640 640"><defs/><defs><filter id="c" width="1.057" height="1.063" x="-.029" y="-.032" color-interpolation-filters="sRGB"><feGaussianBlur stdDeviation="5.676"/></filter></defs><defs><linearGradient id="a" x1="183.84" x2="455.25" y1="30.41" y2="610.01" gradientUnits="userSpaceOnUse"><stop offset="0%" stop-color="#f8d266"/><stop offset="100%" stop-color="#f17953"/></linearGradient><path id="b" d="M610.01 184.75c74.65 160.06 5.3 350.61-154.76 425.26-160.06 74.65-350.61 5.3-425.26-154.76-74.65-160.06-5.3-350.61 154.76-425.26 160.06-74.65 350.61-5.3 425.26 154.76z"/></defs><use fill="url(#a)" xlink:href="#b"/><path fill="#001" d="M268.127 493.838V364.3h103.63v129.538c0 14.25 11.659 25.908 25.908 25.908h77.723c14.25 0 25.908-11.658 25.908-25.908V312.485h44.043c11.917 0 17.617-14.768 8.55-22.54L337.3 94.86c-9.845-8.809-24.871-8.809-34.716 0L85.996 289.945c-8.809 7.772-3.368 22.54 8.55 22.54h44.042v181.353c0 14.25 11.659 25.908 25.908 25.908h77.723c14.25 0 25.908-11.658 25.908-25.908z" filter="url(#c)" opacity=".2" transform="translate(13.776 17.087) scale(.95695)"/><path fill="#fafafa" d="M270.36 489.666V365.704h99.17v123.962c0 13.636 11.156 24.792 24.792 24.792h74.377c13.636 0 24.793-11.156 24.793-24.792V316.12h42.147c11.404 0 16.858-14.132 8.181-21.57L336.556 107.864c-9.421-8.43-23.8-8.43-33.222 0L96.07 294.55c-8.43 7.438-3.223 21.57 8.181 21.57h42.147v173.546c0 13.636 11.157 24.792 24.793 24.792h74.377c13.636 0 24.792-11.156 24.792-24.792z"/></svg>